<svg xmlns="http://www.w3.org/2000/svg" width="24" height="24" viewBox="0 0 24 24" fill="none" stroke="#3b82f6" stroke-width="2" stroke-linecap="round" stroke-linejoin="round">
  <path d="M14.4 14.4 9.6 9.6"/>
  <path d="M18.65 21.35a2.12 2.12 0 0 1-2.99 0L2.65 8.34a2.12 2.12 0 1 1 2.99-2.98L18.64 18.36a2.12 2.12 0 0 1 0 2.99Z"/>
  <path d="m21.5 21.5-1.4-1.4"/>
  <path d="M3.9 3.9 2.5 2.5"/>
  <path d="M6.404 12.768a2 2 0 1 1-2.829-2.829l5.858-5.858a2 2 0 1 1 2.829 2.829Z"/>
  <path d="M8.95 20.306a2 2 0 1 1-2.828-2.828l5.858-5.858a2 2 0 1 1 2.828 2.828Z"/>
</svg>